<svg width="188" height="53" viewBox="0 0 188 53" fill="none" xmlns="http://www.w3.org/2000/svg">
<path d="M47.24 39H45.84L40.16 27.56H24.24L18.68 39H17.28L32.24 8.28L47.24 39ZM39.68 26.4L32.16 11.16L24.8 26.4H39.68ZM69.7681 9L56.0481 39.68L42.3281 9H43.7681L56.1681 36.64L68.4081 9H69.7681ZM95.7166 39H94.3166L88.6366 27.56H72.7166L67.1566 39H65.7566L80.7166 8.28L95.7166 39ZM88.1566 26.4L80.6366 11.16L73.2766 26.4H88.1566ZM111.256 10.16H98.0556V9H113.256L100.016 37.84H113.136V39H98.0556L111.256 10.16ZM126.324 39.8C124.591 39.8 123.044 39.44 121.684 38.72C120.324 37.9733 119.257 36.92 118.484 35.56C117.711 34.2 117.324 32.6133 117.324 30.8V9H118.644V30.76C118.644 32.36 118.977 33.76 119.644 34.96C120.311 36.1333 121.217 37.04 122.364 37.68C123.537 38.32 124.844 38.64 126.284 38.64C127.724 38.64 129.017 38.3333 130.164 37.72C131.337 37.08 132.244 36.1733 132.884 35C133.551 33.8 133.884 32.3867 133.884 30.76V9H135.204V30.72C135.204 32.56 134.831 34.1733 134.084 35.56C133.337 36.92 132.284 37.9733 130.924 38.72C129.591 39.44 128.057 39.8 126.324 39.8ZM141.543 9H143.263C146.383 9 148.783 9.82666 150.463 11.48C152.169 13.1333 153.023 15.4933 153.023 18.56C153.023 20.32 152.596 21.9333 151.743 23.4C150.916 24.8667 149.783 26.0267 148.343 26.88C146.903 27.7067 145.316 28.12 143.583 28.12H143.303L153.623 39H151.903L142.823 29.48V39H141.543V9ZM143.543 26.96C145.063 26.96 146.449 26.5867 147.703 25.84C148.956 25.0933 149.943 24.0933 150.663 22.84C151.383 21.56 151.743 20.1467 151.743 18.6C151.743 15.9067 151.009 13.8267 149.543 12.36C148.103 10.8933 146.036 10.16 143.343 10.16H142.823V26.96H143.543ZM186.146 39H184.746L179.066 27.56H163.146L157.586 39H156.186L171.146 8.28L186.146 39ZM178.586 26.4L171.066 11.16L163.706 26.4H178.586Z" fill="white"/>
<path d="M54.116 51L53.21 46.8H53.678L54.392 50.268L55.43 46.8H55.88L56.918 50.256L57.638 46.8H58.088L57.182 51H56.714L55.652 47.442L54.584 51H54.116ZM58.669 51V46.8L59.113 46.698V48.348C59.349 48.072 59.665 47.934 60.061 47.934C60.289 47.934 60.489 47.984 60.661 48.084C60.837 48.18 60.973 48.316 61.069 48.492C61.169 48.664 61.219 48.866 61.219 49.098V51H60.781V49.188C60.781 48.92 60.705 48.71 60.553 48.558C60.405 48.402 60.201 48.324 59.941 48.324C59.761 48.324 59.601 48.364 59.461 48.444C59.321 48.524 59.205 48.638 59.113 48.786V51H58.669ZM63.372 51.054C63.084 51.054 62.822 50.986 62.586 50.85C62.354 50.71 62.168 50.522 62.028 50.286C61.892 50.05 61.824 49.786 61.824 49.494C61.824 49.206 61.89 48.946 62.022 48.714C62.154 48.478 62.332 48.292 62.556 48.156C62.78 48.016 63.03 47.946 63.306 47.946C63.574 47.946 63.814 48.016 64.026 48.156C64.242 48.292 64.412 48.478 64.536 48.714C64.664 48.946 64.728 49.206 64.728 49.494V49.632H62.262C62.286 49.828 62.348 50.004 62.448 50.16C62.552 50.316 62.686 50.44 62.85 50.532C63.014 50.62 63.194 50.664 63.39 50.664C63.546 50.664 63.698 50.64 63.846 50.592C63.994 50.544 64.118 50.476 64.218 50.388L64.494 50.682C64.326 50.806 64.15 50.9 63.966 50.964C63.786 51.024 63.588 51.054 63.372 51.054ZM62.274 49.278H64.284C64.26 49.098 64.2 48.938 64.104 48.798C64.012 48.654 63.896 48.542 63.756 48.462C63.616 48.378 63.462 48.336 63.294 48.336C63.122 48.336 62.964 48.376 62.82 48.456C62.676 48.536 62.556 48.648 62.46 48.792C62.364 48.932 62.302 49.094 62.274 49.278ZM65.3487 51V47.994H65.7927V48.42C65.8847 48.264 66.0007 48.144 66.1407 48.06C66.2847 47.972 66.4487 47.928 66.6327 47.928C66.7367 47.928 66.8307 47.942 66.9147 47.97V48.378C66.8627 48.358 66.8107 48.344 66.7587 48.336C66.7067 48.328 66.6547 48.324 66.6027 48.324C66.4187 48.324 66.2567 48.378 66.1167 48.486C65.9807 48.59 65.8727 48.742 65.7927 48.942V51H65.3487ZM68.622 51.054C68.334 51.054 68.072 50.986 67.836 50.85C67.604 50.71 67.418 50.522 67.278 50.286C67.142 50.05 67.074 49.786 67.074 49.494C67.074 49.206 67.14 48.946 67.272 48.714C67.404 48.478 67.582 48.292 67.806 48.156C68.03 48.016 68.28 47.946 68.556 47.946C68.824 47.946 69.064 48.016 69.276 48.156C69.492 48.292 69.662 48.478 69.786 48.714C69.914 48.946 69.978 49.206 69.978 49.494V49.632H67.512C67.536 49.828 67.598 50.004 67.698 50.16C67.802 50.316 67.936 50.44 68.1 50.532C68.264 50.62 68.444 50.664 68.64 50.664C68.796 50.664 68.948 50.64 69.096 50.592C69.244 50.544 69.368 50.476 69.468 50.388L69.744 50.682C69.576 50.806 69.4 50.9 69.216 50.964C69.036 51.024 68.838 51.054 68.622 51.054ZM67.524 49.278H69.534C69.51 49.098 69.45 48.938 69.354 48.798C69.262 48.654 69.146 48.542 69.006 48.462C68.866 48.378 68.712 48.336 68.544 48.336C68.372 48.336 68.214 48.376 68.07 48.456C67.926 48.536 67.806 48.648 67.71 48.792C67.614 48.932 67.552 49.094 67.524 49.278ZM71.9718 51V46.8H74.9778V47.208H72.4338V48.678H74.0958V49.08H72.4338V50.592H75.0018V51H71.9718ZM76.4804 51L75.1784 47.994H75.6704L76.6964 50.424L77.7224 47.994H78.1964L76.9004 51H76.4804ZM79.9247 51.054C79.6367 51.054 79.3747 50.986 79.1387 50.85C78.9067 50.71 78.7207 50.522 78.5807 50.286C78.4447 50.05 78.3767 49.786 78.3767 49.494C78.3767 49.206 78.4427 48.946 78.5747 48.714C78.7067 48.478 78.8847 48.292 79.1087 48.156C79.3327 48.016 79.5827 47.946 79.8587 47.946C80.1267 47.946 80.3667 48.016 80.5787 48.156C80.7947 48.292 80.9647 48.478 81.0887 48.714C81.2167 48.946 81.2807 49.206 81.2807 49.494V49.632H78.8147C78.8387 49.828 78.9007 50.004 79.0007 50.16C79.1047 50.316 79.2387 50.44 79.4027 50.532C79.5667 50.62 79.7467 50.664 79.9427 50.664C80.0987 50.664 80.2507 50.64 80.3987 50.592C80.5467 50.544 80.6707 50.476 80.7707 50.388L81.0467 50.682C80.8787 50.806 80.7027 50.9 80.5187 50.964C80.3387 51.024 80.1407 51.054 79.9247 51.054ZM78.8267 49.278H80.8367C80.8127 49.098 80.7527 48.938 80.6567 48.798C80.5647 48.654 80.4487 48.542 80.3087 48.462C80.1687 48.378 80.0147 48.336 79.8467 48.336C79.6747 48.336 79.5167 48.376 79.3727 48.456C79.2287 48.536 79.1087 48.648 79.0127 48.792C78.9167 48.932 78.8547 49.094 78.8267 49.278ZM81.9014 51V47.994H82.3454V48.42C82.4374 48.264 82.5534 48.144 82.6934 48.06C82.8374 47.972 83.0014 47.928 83.1854 47.928C83.2894 47.928 83.3834 47.942 83.4674 47.97V48.378C83.4154 48.358 83.3634 48.344 83.3114 48.336C83.2594 48.328 83.2074 48.324 83.1554 48.324C82.9714 48.324 82.8094 48.378 82.6694 48.486C82.5334 48.59 82.4254 48.742 82.3454 48.942V51H81.9014ZM84.1603 52.284C84.1043 52.284 84.0503 52.28 83.9983 52.272C83.9503 52.268 83.9103 52.262 83.8783 52.254V51.852C83.9463 51.868 84.0303 51.876 84.1303 51.876C84.3943 51.876 84.5943 51.72 84.7303 51.408L84.9103 50.994L83.6863 47.994H84.1783L85.1503 50.46L86.2003 47.994H86.6803L85.1803 51.468C85.0963 51.66 85.0063 51.816 84.9103 51.936C84.8143 52.056 84.7043 52.144 84.5803 52.2C84.4603 52.256 84.3203 52.284 84.1603 52.284ZM90.4459 51.066C90.1419 51.066 89.8579 51.012 89.5939 50.904C89.3299 50.792 89.0979 50.638 88.8979 50.442C88.6979 50.242 88.5419 50.012 88.4299 49.752C88.3219 49.488 88.2679 49.204 88.2679 48.9C88.2679 48.596 88.3219 48.314 88.4299 48.054C88.5419 47.79 88.6979 47.56 88.8979 47.364C89.0979 47.164 89.3299 47.01 89.5939 46.902C89.8579 46.79 90.1419 46.734 90.4459 46.734C90.6659 46.734 90.8759 46.762 91.0759 46.818C91.2799 46.87 91.4679 46.948 91.6399 47.052C91.8159 47.152 91.9719 47.276 92.1079 47.424L91.8019 47.748C91.6379 47.56 91.4359 47.416 91.1959 47.316C90.9559 47.212 90.7059 47.16 90.4459 47.16C90.2019 47.16 89.9759 47.204 89.7679 47.292C89.5599 47.38 89.3779 47.504 89.2219 47.664C89.0699 47.82 88.9499 48.004 88.8619 48.216C88.7779 48.424 88.7359 48.652 88.7359 48.9C88.7359 49.144 88.7779 49.372 88.8619 49.584C88.9499 49.796 89.0719 49.982 89.2279 50.142C89.3839 50.298 89.5659 50.42 89.7739 50.508C89.9859 50.596 90.2139 50.64 90.4579 50.64C90.7179 50.64 90.9659 50.59 91.2019 50.49C91.4379 50.386 91.6359 50.244 91.7959 50.064L92.0959 50.376C91.9559 50.52 91.7979 50.644 91.6219 50.748C91.4499 50.852 91.2639 50.932 91.0639 50.988C90.8639 51.04 90.6579 51.066 90.4459 51.066ZM92.712 51V46.8L93.156 46.698V51H92.712ZM93.9132 51V47.994H94.3572V51H93.9132ZM94.1352 47.418C94.0552 47.418 93.9852 47.388 93.9252 47.328C93.8652 47.268 93.8352 47.198 93.8352 47.118C93.8352 47.034 93.8652 46.964 93.9252 46.908C93.9852 46.848 94.0552 46.818 94.1352 46.818C94.2192 46.818 94.2892 46.848 94.3452 46.908C94.4052 46.964 94.4352 47.034 94.4352 47.118C94.4352 47.198 94.4052 47.268 94.3452 47.328C94.2892 47.388 94.2192 47.418 94.1352 47.418ZM96.5063 51.054C96.2223 51.054 95.9643 50.986 95.7323 50.85C95.5003 50.71 95.3163 50.522 95.1803 50.286C95.0443 50.05 94.9763 49.786 94.9763 49.494C94.9763 49.202 95.0443 48.94 95.1803 48.708C95.3163 48.472 95.5003 48.284 95.7323 48.144C95.9643 48.004 96.2223 47.934 96.5063 47.934C96.7263 47.934 96.9383 47.976 97.1423 48.06C97.3463 48.14 97.5263 48.256 97.6823 48.408L97.4003 48.732C97.2803 48.604 97.1423 48.508 96.9863 48.444C96.8343 48.376 96.6763 48.342 96.5123 48.342C96.3083 48.342 96.1223 48.394 95.9543 48.498C95.7903 48.598 95.6583 48.736 95.5583 48.912C95.4623 49.084 95.4143 49.278 95.4143 49.494C95.4143 49.71 95.4623 49.906 95.5583 50.082C95.6583 50.258 95.7923 50.398 95.9603 50.502C96.1283 50.602 96.3143 50.652 96.5183 50.652C96.6823 50.652 96.8363 50.62 96.9803 50.556C97.1283 50.492 97.2663 50.398 97.3943 50.274L97.6703 50.574C97.5103 50.726 97.3303 50.844 97.1303 50.928C96.9303 51.012 96.7223 51.054 96.5063 51.054ZM98.1905 51V46.8L98.6345 46.698V49.35L100.207 47.994H100.747L99.0965 49.422L100.825 51H100.219L98.6345 49.56V51H98.1905ZM102.528 51V46.8H102.99V50.586H105.492V51H102.528ZM107.294 51.054C107.006 51.054 106.744 50.986 106.508 50.85C106.276 50.71 106.09 50.522 105.95 50.286C105.814 50.05 105.746 49.786 105.746 49.494C105.746 49.206 105.812 48.946 105.944 48.714C106.076 48.478 106.254 48.292 106.478 48.156C106.702 48.016 106.952 47.946 107.228 47.946C107.496 47.946 107.736 48.016 107.948 48.156C108.164 48.292 108.334 48.478 108.458 48.714C108.586 48.946 108.65 49.206 108.65 49.494V49.632H106.184C106.208 49.828 106.27 50.004 106.37 50.16C106.474 50.316 106.608 50.44 106.772 50.532C106.936 50.62 107.116 50.664 107.312 50.664C107.468 50.664 107.62 50.64 107.768 50.592C107.916 50.544 108.04 50.476 108.14 50.388L108.416 50.682C108.248 50.806 108.072 50.9 107.888 50.964C107.708 51.024 107.51 51.054 107.294 51.054ZM106.196 49.278H108.206C108.182 49.098 108.122 48.938 108.026 48.798C107.934 48.654 107.818 48.542 107.678 48.462C107.538 48.378 107.384 48.336 107.216 48.336C107.044 48.336 106.886 48.376 106.742 48.456C106.598 48.536 106.478 48.648 106.382 48.792C106.286 48.932 106.224 49.094 106.196 49.278ZM110.16 51.054C109.94 51.054 109.746 51.016 109.578 50.94C109.414 50.864 109.284 50.758 109.188 50.622C109.096 50.486 109.05 50.328 109.05 50.148C109.05 49.864 109.158 49.64 109.374 49.476C109.59 49.312 109.882 49.23 110.25 49.23C110.574 49.23 110.868 49.298 111.132 49.434V49.038C111.132 48.798 111.064 48.618 110.928 48.498C110.792 48.374 110.594 48.312 110.334 48.312C110.186 48.312 110.036 48.334 109.884 48.378C109.736 48.418 109.572 48.484 109.392 48.576L109.224 48.234C109.44 48.13 109.64 48.054 109.824 48.006C110.008 47.958 110.192 47.934 110.376 47.934C110.756 47.934 111.048 48.024 111.252 48.204C111.46 48.384 111.564 48.642 111.564 48.978V51H111.132V50.706C110.996 50.822 110.846 50.91 110.682 50.97C110.522 51.026 110.348 51.054 110.16 51.054ZM109.476 50.136C109.476 50.304 109.546 50.442 109.686 50.55C109.83 50.654 110.014 50.706 110.238 50.706C110.418 50.706 110.582 50.678 110.73 50.622C110.878 50.566 111.012 50.478 111.132 50.358V49.794C111.008 49.71 110.876 49.65 110.736 49.614C110.596 49.574 110.438 49.554 110.262 49.554C110.022 49.554 109.83 49.608 109.686 49.716C109.546 49.82 109.476 49.96 109.476 50.136ZM113.68 51.048C113.4 51.048 113.144 50.98 112.912 50.844C112.684 50.704 112.502 50.518 112.366 50.286C112.234 50.05 112.168 49.786 112.168 49.494C112.168 49.202 112.234 48.94 112.366 48.708C112.502 48.476 112.684 48.292 112.912 48.156C113.144 48.016 113.402 47.946 113.686 47.946C113.862 47.946 114.032 47.976 114.196 48.036C114.36 48.092 114.51 48.176 114.646 48.288V46.8L115.09 46.698V51H114.652V50.682C114.388 50.926 114.064 51.048 113.68 51.048ZM113.722 50.658C113.91 50.658 114.084 50.622 114.244 50.55C114.408 50.474 114.542 50.37 114.646 50.238V48.75C114.542 48.622 114.408 48.522 114.244 48.45C114.084 48.374 113.91 48.336 113.722 48.336C113.514 48.336 113.324 48.386 113.152 48.486C112.984 48.586 112.85 48.724 112.75 48.9C112.654 49.072 112.606 49.268 112.606 49.488C112.606 49.708 112.654 49.906 112.75 50.082C112.85 50.258 112.984 50.398 113.152 50.502C113.324 50.606 113.514 50.658 113.722 50.658ZM116.805 51.06C116.557 51.06 116.323 51.02 116.103 50.94C115.887 50.856 115.699 50.74 115.539 50.592L115.809 50.304C115.949 50.432 116.103 50.532 116.271 50.604C116.439 50.672 116.611 50.706 116.787 50.706C117.027 50.706 117.223 50.656 117.375 50.556C117.527 50.456 117.603 50.326 117.603 50.166C117.603 50.034 117.557 49.932 117.465 49.86C117.377 49.784 117.237 49.732 117.045 49.704L116.523 49.632C116.223 49.588 115.999 49.498 115.851 49.362C115.707 49.226 115.635 49.042 115.635 48.81C115.635 48.642 115.683 48.492 115.779 48.36C115.875 48.228 116.007 48.124 116.175 48.048C116.347 47.972 116.543 47.934 116.763 47.934C116.983 47.934 117.189 47.966 117.381 48.03C117.573 48.094 117.761 48.194 117.945 48.33L117.711 48.63C117.543 48.514 117.379 48.43 117.219 48.378C117.063 48.322 116.903 48.294 116.739 48.294C116.531 48.294 116.363 48.34 116.235 48.432C116.107 48.524 116.043 48.644 116.043 48.792C116.043 48.928 116.087 49.032 116.175 49.104C116.263 49.172 116.405 49.22 116.601 49.248L117.123 49.32C117.423 49.36 117.647 49.448 117.795 49.584C117.947 49.72 118.023 49.906 118.023 50.142C118.023 50.314 117.969 50.47 117.861 50.61C117.753 50.75 117.607 50.86 117.423 50.94C117.243 51.02 117.037 51.06 116.805 51.06ZM121.054 51V47.214H119.536V46.8H123.034V47.214H121.516V51H121.054ZM124.227 51.06C123.943 51.06 123.683 50.992 123.447 50.856C123.215 50.716 123.031 50.528 122.895 50.292C122.759 50.056 122.691 49.792 122.691 49.5C122.691 49.208 122.759 48.944 122.895 48.708C123.031 48.472 123.215 48.286 123.447 48.15C123.683 48.01 123.943 47.94 124.227 47.94C124.515 47.94 124.775 48.01 125.007 48.15C125.239 48.286 125.423 48.472 125.559 48.708C125.695 48.944 125.763 49.208 125.763 49.5C125.763 49.792 125.695 50.056 125.559 50.292C125.423 50.528 125.239 50.716 125.007 50.856C124.775 50.992 124.515 51.06 124.227 51.06ZM124.227 50.664C124.431 50.664 124.615 50.612 124.779 50.508C124.947 50.404 125.079 50.264 125.175 50.088C125.275 49.912 125.325 49.716 125.325 49.5C125.325 49.28 125.275 49.084 125.175 48.912C125.079 48.736 124.947 48.596 124.779 48.492C124.615 48.388 124.431 48.336 124.227 48.336C124.023 48.336 123.837 48.388 123.669 48.492C123.505 48.596 123.373 48.736 123.273 48.912C123.177 49.084 123.129 49.28 123.129 49.5C123.129 49.716 123.177 49.912 123.273 50.088C123.373 50.264 123.505 50.404 123.669 50.508C123.837 50.612 124.023 50.664 124.227 50.664ZM129.733 51.066C129.429 51.066 129.145 51.012 128.881 50.904C128.617 50.792 128.385 50.638 128.185 50.442C127.985 50.242 127.829 50.012 127.717 49.752C127.609 49.488 127.555 49.204 127.555 48.9C127.555 48.596 127.609 48.314 127.717 48.054C127.829 47.79 127.985 47.56 128.185 47.364C128.385 47.164 128.617 47.01 128.881 46.902C129.145 46.79 129.429 46.734 129.733 46.734C129.953 46.734 130.163 46.762 130.363 46.818C130.567 46.87 130.755 46.948 130.927 47.052C131.103 47.152 131.259 47.276 131.395 47.424L131.089 47.748C130.925 47.56 130.723 47.416 130.483 47.316C130.243 47.212 129.993 47.16 129.733 47.16C129.489 47.16 129.263 47.204 129.055 47.292C128.847 47.38 128.665 47.504 128.509 47.664C128.357 47.82 128.237 48.004 128.149 48.216C128.065 48.424 128.023 48.652 128.023 48.9C128.023 49.144 128.065 49.372 128.149 49.584C128.237 49.796 128.359 49.982 128.515 50.142C128.671 50.298 128.853 50.42 129.061 50.508C129.273 50.596 129.501 50.64 129.745 50.64C130.005 50.64 130.253 50.59 130.489 50.49C130.725 50.386 130.923 50.244 131.083 50.064L131.383 50.376C131.243 50.52 131.085 50.644 130.909 50.748C130.737 50.852 130.551 50.932 130.351 50.988C130.151 51.04 129.945 51.066 129.733 51.066ZM133.309 51.06C133.025 51.06 132.765 50.992 132.529 50.856C132.297 50.716 132.113 50.528 131.977 50.292C131.841 50.056 131.773 49.792 131.773 49.5C131.773 49.208 131.841 48.944 131.977 48.708C132.113 48.472 132.297 48.286 132.529 48.15C132.765 48.01 133.025 47.94 133.309 47.94C133.597 47.94 133.857 48.01 134.089 48.15C134.321 48.286 134.505 48.472 134.641 48.708C134.777 48.944 134.845 49.208 134.845 49.5C134.845 49.792 134.777 50.056 134.641 50.292C134.505 50.528 134.321 50.716 134.089 50.856C133.857 50.992 133.597 51.06 133.309 51.06ZM133.309 50.664C133.513 50.664 133.697 50.612 133.861 50.508C134.029 50.404 134.161 50.264 134.257 50.088C134.357 49.912 134.407 49.716 134.407 49.5C134.407 49.28 134.357 49.084 134.257 48.912C134.161 48.736 134.029 48.596 133.861 48.492C133.697 48.388 133.513 48.336 133.309 48.336C133.105 48.336 132.919 48.388 132.751 48.492C132.587 48.596 132.455 48.736 132.355 48.912C132.259 49.084 132.211 49.28 132.211 49.5C132.211 49.716 132.259 49.912 132.355 50.088C132.455 50.264 132.587 50.404 132.751 50.508C132.919 50.612 133.105 50.664 133.309 50.664ZM135.462 51V47.994H135.906V48.324C136.134 48.064 136.428 47.934 136.788 47.934C137 47.934 137.188 47.984 137.352 48.084C137.516 48.18 137.644 48.312 137.736 48.48C137.86 48.296 138.008 48.16 138.18 48.072C138.352 47.98 138.548 47.934 138.768 47.934C138.988 47.934 139.18 47.984 139.344 48.084C139.508 48.18 139.636 48.316 139.728 48.492C139.824 48.664 139.872 48.866 139.872 49.098V51H139.434V49.188C139.434 48.92 139.364 48.71 139.224 48.558C139.084 48.402 138.894 48.324 138.654 48.324C138.49 48.324 138.34 48.366 138.204 48.45C138.068 48.53 137.952 48.652 137.856 48.816C137.864 48.86 137.87 48.906 137.874 48.954C137.882 48.998 137.886 49.046 137.886 49.098V51H137.448V49.188C137.448 48.92 137.378 48.71 137.238 48.558C137.098 48.402 136.91 48.324 136.674 48.324C136.514 48.324 136.368 48.362 136.236 48.438C136.108 48.51 135.998 48.618 135.906 48.762V51H135.462ZM140.962 51V48.372H140.254V47.994H140.962V47.424C140.962 47.128 141.042 46.902 141.202 46.746C141.362 46.59 141.592 46.512 141.892 46.512C141.972 46.512 142.044 46.516 142.108 46.524C142.172 46.532 142.234 46.546 142.294 46.566V46.962C142.226 46.942 142.164 46.928 142.108 46.92C142.052 46.908 141.99 46.902 141.922 46.902C141.746 46.902 141.614 46.946 141.526 47.034C141.442 47.118 141.4 47.252 141.4 47.436V47.994H142.294V48.372H141.4V51H140.962ZM144.02 51.06C143.736 51.06 143.476 50.992 143.24 50.856C143.008 50.716 142.824 50.528 142.688 50.292C142.552 50.056 142.484 49.792 142.484 49.5C142.484 49.208 142.552 48.944 142.688 48.708C142.824 48.472 143.008 48.286 143.24 48.15C143.476 48.01 143.736 47.94 144.02 47.94C144.308 47.94 144.568 48.01 144.8 48.15C145.032 48.286 145.216 48.472 145.352 48.708C145.488 48.944 145.556 49.208 145.556 49.5C145.556 49.792 145.488 50.056 145.352 50.292C145.216 50.528 145.032 50.716 144.8 50.856C144.568 50.992 144.308 51.06 144.02 51.06ZM144.02 50.664C144.224 50.664 144.408 50.612 144.572 50.508C144.74 50.404 144.872 50.264 144.968 50.088C145.068 49.912 145.118 49.716 145.118 49.5C145.118 49.28 145.068 49.084 144.968 48.912C144.872 48.736 144.74 48.596 144.572 48.492C144.408 48.388 144.224 48.336 144.02 48.336C143.816 48.336 143.63 48.388 143.462 48.492C143.298 48.596 143.166 48.736 143.066 48.912C142.97 49.084 142.922 49.28 142.922 49.5C142.922 49.716 142.97 49.912 143.066 50.088C143.166 50.264 143.298 50.404 143.462 50.508C143.63 50.612 143.816 50.664 144.02 50.664ZM146.173 51V47.994H146.617V48.42C146.709 48.264 146.825 48.144 146.965 48.06C147.109 47.972 147.273 47.928 147.457 47.928C147.561 47.928 147.655 47.942 147.739 47.97V48.378C147.687 48.358 147.635 48.344 147.583 48.336C147.531 48.328 147.479 48.324 147.427 48.324C147.243 48.324 147.081 48.378 146.941 48.486C146.805 48.59 146.697 48.742 146.617 48.942V51H146.173ZM149.429 51.06C149.169 51.06 148.969 50.998 148.829 50.874C148.689 50.75 148.619 50.57 148.619 50.334V48.372H147.971V47.994H148.619V47.232L149.057 47.118V47.994H149.963V48.372H149.057V50.22C149.057 50.38 149.093 50.496 149.165 50.568C149.237 50.636 149.355 50.67 149.519 50.67C149.603 50.67 149.677 50.664 149.741 50.652C149.809 50.64 149.881 50.62 149.957 50.592V50.982C149.881 51.01 149.795 51.03 149.699 51.042C149.607 51.054 149.517 51.06 149.429 51.06Z" fill="white"/>
<path d="M7.22029 8L7.98139 9.69827L7.22029 8.73259L6.44531 9.69827L7.22029 8Z" fill="white"/>
<path d="M7.20549 39L6.44439 37.3017L7.20549 38.2674L7.98047 37.3017L7.20549 39Z" fill="white"/>
<rect width="14.2974" height="0.667276" transform="matrix(0.560271 -0.828309 0.829763 0.558115 3.13867 29.3125)" fill="white"/>
<rect x="3.20508" y="16.875" width="7.88075" height="0.66599" fill="white"/>
<rect width="16.3912" height="0.667526" transform="matrix(0.423593 0.905854 -0.906761 0.421646 7.48633 8.625)" fill="white"/>
<rect width="16.3914" height="0.667526" transform="matrix(0.423719 -0.905794 0.90682 0.421519 0 23.4727)" fill="white"/>
<rect x="11.2246" y="30.0898" width="7.88075" height="0.66599" transform="rotate(-180 11.2246 30.0898)" fill="white"/>
<rect width="16.3912" height="0.667526" transform="matrix(-0.423593 -0.905854 0.906761 -0.421646 6.94336 38.3438)" fill="white"/>
<rect width="16.3914" height="0.667526" transform="matrix(-0.423593 0.905854 -0.906761 -0.421646 14.4297 23.4922)" fill="white"/>
</svg>
